<?xml version="1.0" encoding="UTF-8"?>
<svg width="124px" height="221px" viewBox="0 0 124 221" version="1.1" xmlns="http://www.w3.org/2000/svg" xmlns:xlink="http://www.w3.org/1999/xlink">
    <!-- Generator: Sketch 56.3 (81716) - https://sketch.com -->
    <title>盒娘右</title>
    <desc>Created with Sketch.</desc>
    <defs>
        <linearGradient x1="50%" y1="0%" x2="57.0729716%" y2="87.4353384%" id="linearGradient-1">
            <stop stop-color="#4B535A" offset="0%"></stop>
            <stop stop-color="#343C42" offset="100%"></stop>
        </linearGradient>
        <linearGradient x1="50%" y1="0%" x2="50%" y2="71.5961208%" id="linearGradient-2">
            <stop stop-color="#3D4348" offset="0%"></stop>
            <stop stop-color="#33393F" offset="100%"></stop>
        </linearGradient>
        <linearGradient x1="42.6598707%" y1="16.9033803%" x2="50%" y2="58.5909584%" id="linearGradient-3">
            <stop stop-color="#D3D3D3" offset="0%"></stop>
            <stop stop-color="#FCF9FF" offset="100%"></stop>
        </linearGradient>
        <linearGradient x1="50%" y1="0%" x2="50%" y2="100%" id="linearGradient-4">
            <stop stop-color="#ABA5AA" offset="0%"></stop>
            <stop stop-color="#A19DA0" offset="100%"></stop>
        </linearGradient>
        <linearGradient x1="50%" y1="19.0690248%" x2="50%" y2="67.2356394%" id="linearGradient-5">
            <stop stop-color="#F8FAFA" offset="0%"></stop>
            <stop stop-color="#DDDDDD" offset="100%"></stop>
        </linearGradient>
    </defs>
    <g id="页面-1" stroke="none" stroke-width="1" fill="none" fill-rule="evenodd">
        <g id="小黑盒web2.0-footer备份-8" transform="translate(-1027.000000, -2006.000000)">
            <g id="编组-7" transform="translate(0.000000, 1820.000000)">
                <g id="盒娘右" transform="translate(1089.080383, 297.000000) scale(-1, 1) translate(-1089.080383, -297.000000) translate(1026.080383, 186.000000)">
                    <g id="腿" transform="translate(31.711706, 156.000000)">
                        <rect id="矩形" fill="#F2E1D8" transform="translate(14.500000, 33.978148) rotate(12.000000) translate(-14.500000, -33.978148) " x="7" y="2.9781476" width="15" height="62" rx="7.5"></rect>
                        <rect id="矩形" fill="#F2E1D8" transform="translate(61.707912, 32.000000) rotate(-15.000000) translate(-61.707912, -32.000000) " x="54.2079117" y="1" width="15" height="62" rx="7.5"></rect>
                        <path d="M18.5956898,3.40862194 C22.7378254,3.40862194 26.0956898,6.76648632 26.0956898,10.9086219 L26.0956898,24.659919 L11.0956898,26.0102622 L11.0956898,10.9086219 C11.0956898,6.76648632 14.4535542,3.40862194 18.5956898,3.40862194 Z" id="矩形" fill="#D7BCAB" transform="translate(18.595690, 14.709442) rotate(12.000000) translate(-18.595690, -14.709442) "></path>
                        <path d="M56.0589967,1.74369377 C60.2011323,1.74369377 63.5589967,5.10155815 63.5589967,9.24369377 L63.5589967,19.7693039 L48.5589967,20.0922306 L48.5589967,9.24369377 C48.5589967,5.10155815 51.9168611,1.74369377 56.0589967,1.74369377 Z" id="矩形" fill="#D7BCAB" transform="translate(56.058997, 10.917962) rotate(-15.000000) translate(-56.058997, -10.917962) "></path>
                    </g>
                    <g id="编组-9" transform="translate(23.676977, 76.885472)">
                        <path d="M67.4931817,62.3145643 C68.3380954,65.3523827 71.9322901,71.4554145 78.2757658,80.6236597 C80.0968168,84.6491943 78.3097352,89.3887904 74.2842028,91.209846 C74.0889041,91.2981946 73.8901334,91.3786581 73.6883721,91.4510419 C64.2440863,94.839268 55.8985225,97.0740748 48.6516805,98.1554621 C41.3259302,99.2486243 32.6294698,99.5299993 22.5622992,98.9995871 C18.1501404,98.7671233 14.7618289,95.0019119 14.9942937,90.5897531 C14.9986283,90.5074834 15.0042334,90.4252855 15.0111071,90.343189 C17.5723853,78.6616057 18.8530243,71.5816573 18.8530243,69.1033437 C18.8530243,67.3554434 18.2260604,59.7134604 16.9721324,46.1773946 C15.3737996,36.0859182 22.2588527,26.6094555 32.3503291,25.0111227 L40.2518358,23.7596469 C50.3433122,22.1613141 59.8197749,29.0463673 61.4181077,39.1378436 C64.8715316,52.4438724 66.8965563,60.169446 67.4931817,62.3145643 Z" id="路径" fill="url(#linearGradient-1)"></path>
                        <rect id="矩形" fill="#33393F" transform="translate(17.742641, 45.114528) rotate(-323.000000) translate(-17.742641, -45.114528) " x="12.2426407" y="24.1145283" width="11" height="42" rx="5.5"></rect>
                        <rect id="矩形" fill="url(#linearGradient-2)" transform="translate(15.500000, 64.871888) rotate(-45.000000) translate(-15.500000, -64.871888) " x="10" y="49.8718876" width="11" height="30" rx="5.5"></rect>
                        <path d="M37.0362421,99.1727731 C32.5757288,99.3306988 27.7510812,99.2729701 22.5622992,98.9995871 C18.1501404,98.7671233 14.7618289,95.0019119 14.9942937,90.5897531 C14.9986283,90.5074834 15.0042334,90.4252855 15.0111071,90.343189 C17.5723853,78.6616057 18.8530243,71.5816573 18.8530243,69.1033437 C18.8530243,67.3554434 18.2260604,59.7134604 16.9721324,46.1773946 C15.3737996,36.0859182 22.2588527,26.6094555 32.3503291,25.0111227 L37.0362421,99.1727731 Z" id="路径" fill="#33393F"></path>
                        <circle id="椭圆形" fill="#F3F3F3" cx="94.2426407" cy="7.1145283" r="7"></circle>
                        <circle id="椭圆形备份" fill="#575D62" cx="24.4034058" cy="74.1145283" r="7"></circle>
                        <rect id="矩形备份-7" fill="#3D4348" transform="translate(67.493182, 19.500000) rotate(-295.000000) translate(-67.493182, -19.500000) " x="61.4931817" y="-11" width="12" height="61" rx="5.5"></rect>
                    </g>
                    <rect id="脖子" fill="#E8B2C4" transform="translate(61.337137, 103.970804) rotate(-8.000000) translate(-61.337137, -103.970804) " x="56.3371368" y="92.9708042" width="10" height="22" rx="4.5"></rect>
                    <path d="M44.4144148,108.688297 C47.1946138,105.173373 51.2519631,102.652934 56.0273059,101.896594 C57.1494656,103.697795 59.2127163,104.237909 62.217058,103.516936 C66.7235706,102.435478 65.5412956,100.719176 66.0846758,100.430318 C69.1368316,98.8078045 72.8158885,97.4595226 77.1218465,96.3854717 L81.9024796,115.559618 L46.2117058,126.885472 L44.4144148,108.688297 Z" id="领子" fill="url(#linearGradient-3)"></path>
                    <path d="M17.1600354,72 C13.2145131,90.1546591 18.1354031,100.721476 31.9227053,103.700449 C38.1791743,105.052263 38.1791743,103.278315 36.4920025,101.564533 C31.9227053,96.9231697 27.1004102,84.8114657 29.7015268,61.8239144 C30.2495354,56.9808499 26.0690383,60.3728785 17.1600354,72 Z" id="左鬓角" fill="#6A6869"></path>
                    <path d="M74.5443986,65.1573547 C71.7612706,87.8737774 77.2633577,100.721476 91.0506599,103.700449 C97.3071289,105.052263 97.3071289,103.278315 95.6199571,101.564533 C91.0506599,96.9231697 86.2283648,84.8114657 88.8294814,61.8239144 C89.37749,56.9808499 84.6157957,58.0919967 74.5443986,65.1573547 Z" id="右鬓角" fill="#787577" transform="translate(85.209714, 81.523757) scale(-1, 1) translate(-85.209714, -81.523757) "></path>
                    <g id="头" transform="translate(18.919617, 38.000000)">
                        <path d="M19.5347062,14.837783 C10.4054568,19.8755203 4.40907077,28.3739387 4.40907077,38.00902 C4.40907077,48.5069159 11.5274865,57.6554594 22.0605713,62.448711 C15.6398038,54.2144326 12.8869138,45.9235499 13.8019013,37.5760629 C14.7084281,29.3057632 21.9575496,13.5008003 19.5347062,14.837783 Z" id="椭圆形" fill="#F8E9E0" transform="translate(13.234821, 38.603378) rotate(-9.000000) translate(-13.234821, -38.603378) "></path>
                        <ellipse id="椭圆形" fill="#A19DA0" transform="translate(38.500000, 34.000000) rotate(-9.000000) translate(-38.500000, -34.000000) " cx="38.5" cy="34" rx="34.5" ry="28"></ellipse>
                        <ellipse id="椭圆形" fill="url(#linearGradient-4)" transform="translate(38.500000, 34.000000) rotate(-9.000000) translate(-38.500000, -34.000000) " cx="38.5" cy="34" rx="34.5" ry="28"></ellipse>
                        <path d="M37,15.6097042 L41.0734577,56.5950739" id="路径-6" stroke="#9A9599" stroke-width="3" stroke-linecap="round"></path>
                        <path d="M37.7052611,15.7738308 L70.8099175,34.1723632 C70.8099175,18.7083902 55.3637414,6.17236323 36.3099175,6.17236323 C17.2560936,6.17236323 1.80991749,18.7083902 1.80991749,34.1723632 L37.7052611,15.7738308 Z" id="椭圆形" fill="#8B8B8B" transform="translate(36.309917, 20.172363) rotate(-9.000000) translate(-36.309917, -20.172363) "></path>
                    </g>
                    <g id="编组-8" transform="translate(0.919617, 61.000000)">
                        <rect id="左辫子" fill="#A19DA0" transform="translate(12.000000, 58.500000) rotate(5.000000) translate(-12.000000, -58.500000) " x="5" y="1" width="14" height="115" rx="7"></rect>
                        <path d="M15.0842101,1.13465952 C18.9502034,1.13465952 22.0842101,4.26866627 22.0842101,8.13465952 L22.0842101,45.3599744 L8.08421012,25.3567294 L8.08421012,8.13465952 C8.08421012,4.26866627 11.2182169,1.13465952 15.0842101,1.13465952 Z" id="左辫子" fill="#959494" transform="translate(15.084210, 23.247317) rotate(5.000000) translate(-15.084210, -23.247317) "></path>
                    </g>
                    <g id="帽子" transform="translate(5.000000, 0.000000)">
                        <path d="M11.4917583,70.8973477 L10.4836909,27.579751 C10.4602222,26.5712818 10.9451489,25.6185305 11.7743103,25.0440287 L47.9196175,0 L50.9196175,47.995021 L11.4917583,70.8973477 Z" id="路径-3" fill="#C0C0C0"></path>
                        <path d="M94.3401516,66.6897093 L89.8046069,25.7434037 C89.6998538,24.7977059 89.1526944,23.9577691 88.3300021,23.4797578 L47.9196175,2.13162821e-14 L50.9196175,47.995021 L94.3401516,66.6897093 Z" id="路径-3" fill="url(#linearGradient-5)"></path>
                        <polygon id="路径-3" fill="#798188" points="90.5680566 32.6357275 90.1567188 28.9222233 48.372696 7.24850432 48.6630634 11.8939014"></polygon>
                        <polygon id="路径-3" fill="#798188" points="10.598463 33.7990604 10.5230813 31.1348349 48.372696 7.24850432 48.6630634 11.8939014"></polygon>
                        <path d="M13.7686211,71.0037543 L50.9196175,47.995021 L37.9259218,34.139392 C36.8106119,32.9500983 34.9496286,32.8692983 33.7354368,33.95745 L2.93402781,61.5614924 C1.7001655,62.6672726 1.59633442,64.5639275 2.7021146,65.7977899 C2.88206503,65.9985839 3.08826365,66.1742019 3.31513956,66.3198993 L10.567956,70.977583 C11.5406879,71.6022614 12.7858041,71.6124425 13.7686211,71.0037543 Z" id="路径-2" fill="#DFDFDF"></path>
                        <path d="M91.8196863,68.1754742 L50.9196175,47.995021 L58.9191955,32.5193929 C59.6800128,31.0475495 61.4899419,30.471149 62.9617853,31.2319663 C63.0821466,31.2941828 63.1981547,31.3644817 63.3090129,31.4423802 L98.2085978,55.9658317 C99.4028091,56.8049874 99.8197794,58.3818509 99.1964525,59.7016185 L95.8597862,66.7663295 C95.1522031,68.2644925 93.3640927,68.9053841 91.8659298,68.1978011 C91.8504519,68.1904908 91.8350368,68.1830483 91.8196863,68.1754742 Z" id="路径-2" fill="#F1F1F1"></path>
                    </g>
                    <g id="辫子" transform="translate(87.919617, 53.000000)" fill="#A19DA0">
                        <rect id="右辫子" transform="translate(16.000000, 61.000000) scale(-1, 1) rotate(8.000000) translate(-16.000000, -61.000000) " x="9" y="1" width="14" height="120" rx="7"></rect>
                    </g>
                </g>
            </g>
        </g>
    </g>
</svg>