<?xml version="1.0" encoding="UTF-8"?>
<svg width="124px" height="221px" viewBox="0 0 124 221" version="1.1" xmlns="http://www.w3.org/2000/svg" xmlns:xlink="http://www.w3.org/1999/xlink">
    <!-- Generator: Sketch 56.3 (81716) - https://sketch.com -->
    <title>盒娘左</title>
    <desc>Created with Sketch.</desc>
    <defs>
        <linearGradient x1="50%" y1="0%" x2="57.0729716%" y2="87.4353384%" id="linearGradient-1">
            <stop stop-color="#4D555C" offset="0%"></stop>
            <stop stop-color="#3A4045" offset="100%"></stop>
        </linearGradient>
        <linearGradient x1="50%" y1="0%" x2="50%" y2="71.5961208%" id="linearGradient-2">
            <stop stop-color="#3D4348" offset="0%"></stop>
            <stop stop-color="#33393F" offset="100%"></stop>
        </linearGradient>
        <linearGradient x1="42.6598707%" y1="30.714731%" x2="50%" y2="55.0059173%" id="linearGradient-3">
            <stop stop-color="#D3D3D3" offset="0%"></stop>
            <stop stop-color="#FCF9FF" offset="100%"></stop>
        </linearGradient>
        <linearGradient x1="50%" y1="19.0690248%" x2="50%" y2="67.2356394%" id="linearGradient-4">
            <stop stop-color="#F8FAFA" offset="0%"></stop>
            <stop stop-color="#DDDDDD" offset="100%"></stop>
        </linearGradient>
    </defs>
    <g id="页面-1" stroke="none" stroke-width="1" fill="none" fill-rule="evenodd">
        <g id="小黑盒web2.0-footer备份-8" transform="translate(-288.000000, -2006.000000)">
            <g id="编组-7" transform="translate(0.000000, 1820.000000)">
                <g id="盒娘左" transform="translate(287.080383, 186.000000)">
                    <rect id="左辫子" fill="#A19DA0" transform="translate(12.919617, 119.500000) rotate(5.000000) translate(-12.919617, -119.500000) " x="5.91961746" y="62" width="14" height="115" rx="7"></rect>
                    <path d="M16.0038276,62.1346595 C19.8698208,62.1346595 23.0038276,65.2686663 23.0038276,69.1346595 L23.0038276,106.359974 L9.00382759,86.3567294 L9.00382759,69.1346595 C9.00382759,65.2686663 12.1378343,62.1346595 16.0038276,62.1346595 Z" id="左辫子" fill="#787577" transform="translate(16.003828, 84.247317) rotate(5.000000) translate(-16.003828, -84.247317) "></path>
                    <rect id="右辫子" fill="#A19DA0" transform="translate(103.919617, 114.000000) scale(-1, 1) rotate(8.000000) translate(-103.919617, -114.000000) " x="96.9196175" y="54" width="14" height="120" rx="7"></rect>
                    <path d="M99.2278818,54.3280781 C103.093875,54.3280781 106.227882,57.4620849 106.227882,61.3280781 L106.227882,106.905054 L92.2278818,103.138508 L92.2278818,61.3280781 C92.2278818,57.4620849 95.3618885,54.3280781 99.2278818,54.3280781 Z" id="右辫子" fill="#787577" transform="translate(99.227882, 80.616566) scale(-1, 1) rotate(8.000000) translate(-99.227882, -80.616566) "></path>
                    <g id="腿" transform="translate(31.711706, 156.000000)">
                        <rect id="矩形" fill="#F8E9E0" transform="translate(14.500000, 33.978148) rotate(12.000000) translate(-14.500000, -33.978148) " x="7" y="2.9781476" width="15" height="62" rx="7.5"></rect>
                        <rect id="矩形" fill="#F8E9E0" transform="translate(61.707912, 32.000000) rotate(-15.000000) translate(-61.707912, -32.000000) " x="54.2079117" y="1" width="15" height="62" rx="7.5"></rect>
                        <path d="M18.5956898,3.40862194 C22.7378254,3.40862194 26.0956898,6.76648632 26.0956898,10.9086219 L26.0956898,24.659919 L11.0956898,26.0102622 L11.0956898,10.9086219 C11.0956898,6.76648632 14.4535542,3.40862194 18.5956898,3.40862194 Z" id="矩形" fill="#EBC4AC" transform="translate(18.595690, 14.709442) rotate(12.000000) translate(-18.595690, -14.709442) "></path>
                        <path d="M56.0589967,1.74369377 C60.2011323,1.74369377 63.5589967,5.10155815 63.5589967,9.24369377 L63.5589967,19.7693039 L48.5589967,20.0922306 L48.5589967,9.24369377 C48.5589967,5.10155815 51.9168611,1.74369377 56.0589967,1.74369377 Z" id="矩形" fill="#EBC4AC" transform="translate(56.058997, 10.917962) rotate(-15.000000) translate(-56.058997, -10.917962) "></path>
                    </g>
                    <g id="编组-9" transform="translate(23.676977, 76.885472)">
                        <rect id="矩形备份-7" fill="#3D4348" transform="translate(67.493182, 19.500000) rotate(-295.000000) translate(-67.493182, -19.500000) " x="61.4931817" y="-11" width="12" height="61" rx="5.5"></rect>
                        <path d="M67.4931817,62.3145643 C68.3380954,65.3523827 71.9322901,71.4554145 78.2757658,80.6236597 C80.0968168,84.6491943 78.3097352,89.3887904 74.2842028,91.209846 C74.0889041,91.2981946 73.8901334,91.3786581 73.6883721,91.4510419 C64.2440863,94.839268 55.8985225,97.0740748 48.6516805,98.1554621 C41.3259302,99.2486243 32.6294698,99.5299993 22.5622992,98.9995871 C18.1501404,98.7671233 14.7618289,95.0019119 14.9942937,90.5897531 C14.9986283,90.5074834 15.0042334,90.4252855 15.0111071,90.343189 C17.5723853,78.6616057 18.8530243,71.5816573 18.8530243,69.1033437 C18.8530243,67.3554434 18.2260604,59.7134604 16.9721324,46.1773946 C15.3737996,36.0859182 22.2588527,26.6094555 32.3503291,25.0111227 L40.2518358,23.7596469 C50.3433122,22.1613141 59.8197749,29.0463673 61.4181077,39.1378436 C64.8715316,52.4438724 66.8965563,60.169446 67.4931817,62.3145643 Z" id="路径" fill="url(#linearGradient-1)"></path>
                        <rect id="矩形" fill="#33393F" transform="translate(17.742641, 45.114528) rotate(-323.000000) translate(-17.742641, -45.114528) " x="12.2426407" y="24.1145283" width="11" height="42" rx="5.5"></rect>
                        <rect id="矩形" fill="url(#linearGradient-2)" transform="translate(15.500000, 64.871888) rotate(-45.000000) translate(-15.500000, -64.871888) " x="10" y="49.8718876" width="11" height="30" rx="5.5"></rect>
                        <path d="M37.0362421,99.1727731 C32.5757288,99.3306988 27.7510812,99.2729701 22.5622992,98.9995871 C18.1501404,98.7671233 14.7618289,95.0019119 14.9942937,90.5897531 C14.9986283,90.5074834 15.0042334,90.4252855 15.0111071,90.343189 C17.5723853,78.6616057 18.8530243,71.5816573 18.8530243,69.1033437 C18.8530243,67.3554434 18.2260604,59.7134604 16.9721324,46.1773946 C15.3737996,36.0859182 22.2588527,26.6094555 32.3503291,25.0111227 L37.0362421,99.1727731 Z" id="路径" fill="#33393F"></path>
                        <circle id="椭圆形" fill="#F3F3F3" cx="94.2426407" cy="7.1145283" r="7"></circle>
                    </g>
                    <rect id="脖子" fill="#E8B2C4" transform="translate(61.337137, 103.970804) rotate(-8.000000) translate(-61.337137, -103.970804) " x="56.3371368" y="92.9708042" width="10" height="22" rx="4.5"></rect>
                    <path d="M44.4144148,108.688297 C47.1946138,105.173373 51.2519631,102.652934 56.0273059,101.896594 L63,114 C63.7226641,113.885541 65.5412956,100.719176 66.0846758,100.430318 C69.1368316,98.8078045 72.8158885,97.4595226 77.1218465,96.3854717 C75.9795483,104.902261 71.5818703,111.673265 63.9288126,116.698482 C59.5893492,116.698482 53.0845499,114.02842 44.4144148,108.688297 Z" id="领子" fill="url(#linearGradient-3)"></path>
                    <g id="蝴蝶结" transform="translate(64.419617, 121.000000) rotate(-9.000000) translate(-64.419617, -121.000000) translate(52.919617, 115.000000)">
                        <path d="M11,2 L2.35777088,0.428685614 C1.27101818,0.231094215 0.229851579,0.951901863 0.0322601798,2.03865456 C0.0107969323,2.15670242 -4.58782914e-16,2.27644223 0,2.39642543 L0,8.89399164 C5.7935996e-16,9.99856114 0.8954305,10.8939916 2,10.8939916 C2.28550174,10.8939916 2.56769467,10.8328661 2.82760589,10.7147246 L11,7 L11,2 Z" id="路径-5" fill="#4E99E4"></path>
                        <path d="M23,2 L14.3577709,0.428685614 C13.2710182,0.231094215 12.2298516,0.951901863 12.0322602,2.03865456 C12.0107969,2.15670242 12,2.27644223 12,2.39642543 L12,8.89399164 C12,9.99856114 12.8954305,10.8939916 14,10.8939916 C14.2855017,10.8939916 14.5676947,10.8328661 14.8276059,10.7147246 L23,7 L23,2 Z" id="路径-5" fill="#4E99E4" transform="translate(17.500000, 6.000000) scale(-1, 1) translate(-17.500000, -6.000000) "></path>
                        <rect id="矩形" fill="#1565B9" x="9" y="1" width="5" height="7" rx="2"></rect>
                    </g>
                    <g id="脸" transform="translate(18.919617, 38.000000)">
                        <ellipse id="椭圆形" fill="#FFF2EA" transform="translate(38.500000, 34.000000) rotate(-9.000000) translate(-38.500000, -34.000000) " cx="38.5" cy="34" rx="34.5" ry="28"></ellipse>
                        <path d="M19.5347062,14.837783 C10.4054568,19.8755203 4.40907077,28.3739387 4.40907077,38.00902 C4.40907077,48.5069159 11.5274865,57.6554594 22.0605713,62.448711 C15.6398038,54.2144326 12.8869138,45.9235499 13.8019013,37.5760629 C14.7084281,29.3057632 21.9575496,13.5008003 19.5347062,14.837783 Z" id="椭圆形" fill="#F8E9E0" transform="translate(13.234821, 38.603378) rotate(-9.000000) translate(-13.234821, -38.603378) "></path>
                        <path d="M37.7052611,15.7738308 L70.8099175,34.1723632 C70.8099175,18.7083902 55.3637414,6.17236323 36.3099175,6.17236323 C17.2560936,6.17236323 1.80991749,18.7083902 1.80991749,34.1723632 L37.7052611,15.7738308 Z" id="椭圆形" fill="#F1E3DB" transform="translate(36.309917, 20.172363) rotate(-9.000000) translate(-36.309917, -20.172363) "></path>
                        <rect id="矩形" fill="#642B71" transform="translate(21.000000, 37.000000) rotate(-9.000000) translate(-21.000000, -37.000000) " x="17" y="29" width="8" height="16" rx="4"></rect>
                        <rect id="矩形备份-9" fill="#642B71" transform="translate(53.000000, 33.000000) rotate(-9.000000) translate(-53.000000, -33.000000) " x="49" y="25" width="8" height="16" rx="4"></rect>
                        <path d="M47.2346517,45.9815325 L47.2346517,51.9815325 C47.2346517,55.8475258 44.1006449,58.9815325 40.2346517,58.9815325 C36.3686584,58.9815325 33.2346517,55.8475258 33.2346517,51.9815325 L33.2346517,45.9815325 L47.2346517,45.9815325 Z" id="矩形备份-10" fill="#FFB8B8" transform="translate(40.234652, 52.481533) rotate(-9.000000) translate(-40.234652, -52.481533) "></path>
                    </g>
                    <path d="M17.1600354,72 C13.2145131,90.1546591 18.1354031,100.721476 31.9227053,103.700449 C38.1791743,105.052263 38.1791743,103.278315 36.4920025,101.564533 C31.9227053,96.9231697 27.1004102,84.8114657 29.7015268,61.8239144 C30.2495354,56.9808499 26.0690383,60.3728785 17.1600354,72 Z" id="左鬓角" fill="#C7BFC2"></path>
                    <path d="M74.5443986,65.1573547 C71.7612706,87.8737774 77.2633577,100.721476 91.0506599,103.700449 C97.3071289,105.052263 97.3071289,103.278315 95.6199571,101.564533 C91.0506599,96.9231697 86.2283648,84.8114657 88.8294814,61.8239144 C89.37749,56.9808499 84.6157957,58.0919967 74.5443986,65.1573547 Z" id="右鬓角" fill="#C7BFC2" transform="translate(85.209714, 81.523757) scale(-1, 1) translate(-85.209714, -81.523757) "></path>
                    <g id="帽子" transform="translate(5.000000, 0.000000)">
                        <path d="M11.4917583,70.8973477 L10.4836909,27.579751 C10.4602222,26.5712818 10.9451489,25.6185305 11.7743103,25.0440287 L47.9196175,0 L50.9196175,47.995021 L11.4917583,70.8973477 Z" id="路径-3" fill="url(#linearGradient-4)"></path>
                        <path d="M35.5395734,24.3028986 C35.7332452,24.3310337 35.8988665,24.5429648 35.9084744,24.7736488 L36.3126777,34.4785084 C36.3222856,34.7091924 36.1801802,35.0618725 35.996049,35.2628083 L33.3014251,38.2164527 C33.1172939,38.4173885 32.9595337,38.3941988 32.9499258,38.1635148 L32.5544569,28.6683679 C32.544849,28.4376839 32.3792278,28.2257528 32.1855559,28.1976177 L29.3516964,27.7709641 C29.1580245,27.7428291 29.0080581,27.9067677 29.017666,28.1374517 L29.117709,30.539469 C29.1273169,30.770153 28.9583964,31.0381074 28.7390269,31.1384433 L26.080695,32.3543193 C25.8628489,32.4539584 25.6783408,32.3476563 25.6687329,32.1169723 L25.2971829,23.1961156 C25.287575,22.9654316 25.4375414,22.801493 25.6312133,22.829628 L26.6872346,22.9877449 C26.8809065,23.0158799 27.0401901,23.0383728 27.0431697,23.0353661 C27.0461494,23.0323594 27.205433,23.0548522 27.3991049,23.0829873 L35.5395734,24.3028986 Z M25.9882112,36.5663292 C25.9786124,36.3358646 26.1476184,36.0680525 26.3655608,35.9683693 L29.0250672,34.7519561 C29.2430095,34.652273 29.4275883,34.7583614 29.4387112,34.988129 L29.810579,43.9166175 C29.8201777,44.1470821 29.6701396,44.3109628 29.4763888,44.2829748 L26.0287689,43.7675141 C25.8350181,43.7395262 25.6786505,43.7141479 25.6785834,43.7125363 C25.6785163,43.7109246 25.5206246,43.6862434 25.3268738,43.6582555 L19.5678267,42.7974424 C19.3740759,42.7694544 19.2083979,42.5578229 19.1987992,42.3273583 L18.7949802,32.6317289 C18.7853815,32.4012643 18.9275661,32.0488217 19.1117852,31.8479567 L21.8076977,28.8953599 C21.9919168,28.6944949 22.1497414,28.7175645 22.1593401,28.9480291 L22.5545,38.4357568 C22.5640988,38.6662214 22.7297768,38.8778529 22.9220035,38.906538 L25.758474,39.3287164 C25.9522248,39.3567044 26.1022629,39.1928237 26.0926641,38.9623591 L25.9882112,36.5663292 Z" id="小黑盒" fill="#798188" fill-rule="nonzero"></path>
                        <path d="M94.3401516,66.6897093 L89.8046069,25.7434037 C89.6998538,24.7977059 89.1526944,23.9577691 88.3300021,23.4797578 L47.9196175,2.13162821e-14 L50.9196175,47.995021 L94.3401516,66.6897093 Z" id="路径-3" fill="#C0C0C0"></path>
                        <polygon id="路径-3" fill="#798188" points="90.5680566 32.6357275 90.1567188 28.9222233 48.372696 7.24850432 48.6630634 11.8939014"></polygon>
                        <path d="M13.7686211,71.0037543 L50.9196175,47.995021 L37.9259218,34.139392 C36.8106119,32.9500983 34.9496286,32.8692983 33.7354368,33.95745 L2.93402781,61.5614924 C1.7001655,62.6672726 1.59633442,64.5639275 2.7021146,65.7977899 C2.88206503,65.9985839 3.08826365,66.1742019 3.31513956,66.3198993 L10.567956,70.977583 C11.5406879,71.6022614 12.7858041,71.6124425 13.7686211,71.0037543 Z" id="路径-2" fill="#FDFFFF"></path>
                        <path d="M91.8196863,68.1754742 L50.9196175,47.995021 L58.9191955,32.5193929 C59.6800128,31.0475495 61.4899419,30.471149 62.9617853,31.2319663 C63.0821466,31.2941828 63.1981547,31.3644817 63.3090129,31.4423802 L98.2085978,55.9658317 C99.4028091,56.8049874 99.8197794,58.3818509 99.1964525,59.7016185 L95.8597862,66.7663295 C95.1522031,68.2644925 93.3640927,68.9053841 91.8659298,68.1978011 C91.8504519,68.1904908 91.8350368,68.1830483 91.8196863,68.1754742 Z" id="路径-2" fill="#E9EBEB"></path>
                    </g>
                </g>
            </g>
        </g>
    </g>
</svg>